#!OML:ASF E:\Style3\Style3.ASF
:FULLY-SPECIFIED
:DEGREES
3087
root -0.518757 17.8006 0.419535 -883.465 68.7957 -896.853
lowerback -4.22876 2.18049 0.774227
upperback -7.81345 3.31249 0.464981
thorax -5.7269 1.78509 0.00733363
lowerneck -3.05953 -3.92191 -4.66588
upperneck 21.5024 -5.19345 5.26464
head 7.33638 -2.09798 2.16724
rclavicle 1.74185e-014 2.5842e-015
rhumerus 39.8544 4.67999 -737.156
rradius 119.346
rwrist -32.742
rhand 5.97335 25.4721
rfingers 7.12502
rthumb 31.2979 -1.87219
lclavicle 1.74185e-014 2.5842e-015
lhumerus 344.784 -11.8846 1115.31
lradius 108.64
lwrist -10.4518
lhand -14.4535 11.9705
lfingers 7.12502
lthumb 11.6918 41.6243
rfemur -10.4641 2.55543 20.7992
rtibia 12.8309
rfoot -18.0721 -29.3542
rtoes -7.10155
lfemur -20.9811 -18.8762 -11.1234
ltibia 14.9739
lfoot -8.21112 3.35419
ltoes -20.2568
3088
root -0.51405 17.8002 0.407021 -883.406 68.1887 -896.913
lowerback -4.198 2.23834 0.666628
upperback -7.74131 3.38712 0.478897
thorax -5.67383 1.82774 0.0817265
lowerneck -3.38688 -4.08814 -4.93976
upperneck 21.7168 -5.42128 5.43948
head 7.491 -2.20404 2.24888
rclavicle 2.77056e-015 -1.76918e-014
rhumerus 40.3185 4.48386 -736.948
rradius 119.13
rwrist -32.6202
rhand 5.76953 24.8865
rfingers 7.12502
rthumb 31.1037 -2.49512
lclavicle 2.77056e-015 -1.76918e-014
lhumerus 344.573 -11.4378 1114.9
lradius 108.546
lwrist -10.2618
lhand -14.5224 11.8317
lfingers 7.12502
lthumb 11.6253 41.4892
rfemur -10.4069 2.38021 20.8764
rtibia 12.6939
rfoot -18.2759 -29.6401
rtoes -6.91434
lfemur -21.2442 -19.1113 -11.0127
ltibia 14.9787
lfoot -8.16014 3.04113
ltoes -20.4958
3089
root -0.510151 17.8011 0.395787 -883.401 67.5758 -897.033
lowerback -4.14978 2.26098 0.515161
upperback -7.66356 3.41503 0.51368
thorax -5.62874 1.84966 0.201716
lowerneck -3.5228 -4.22158 -5.10885
upperneck 21.6689 -5.58742 5.44152
head 7.51485 -2.29768 2.2614
rclavicle 4.95719e-015 2.28602e-014
rhumerus 40.832 4.28586 -736.74
rradius 119.021
rwrist -32.5056
rhand 5.95675 25.3644
rfingers 7.12502
rthumb 31.2821 -1.98288
lclavicle 4.95719e-015 2.28602e-014
lhumerus 344.214 -10.8825 1114.49
lradius 108.539
lwrist -10.1239
lhand -14.5742 11.5681
lfingers 7.12502
lthumb 11.5754 41.2284
rfemur -10.3434 2.37931 20.9239
rtibia 12.5407
rfoot -18.5931 -30.0908
rtoes -6.40831
lfemur -21.5249 -19.2637 -10.9327
ltibia 14.9888
lfoot -8.08778 2.62837
ltoes -20.6588
3090
root -0.505513 17.8019 0.383497 -883.37 66.9628 -897.124
lowerback -4.0812 2.23537 0.340333
upperback -7.58895 3.38132 0.606494
thorax -5.60345 1.84384 0.394075
lowerneck -3.77726 -4.32095 -5.37561
upperneck 21.7768 -5.69416 5.45474
head 7.61175 -2.36453 2.29758
rclavicle -5.64921e-014 -2.98177e-015
rhumerus 41.4652 4.22657 -736.468
rradius 118.957
rwrist -32.3852
rhand 5.67407 25.2116
rfingers 7.12502
rthumb 31.0127 -2.18746
lclavicle -5.64921e-014 -2.98177e-015
lhumerus 343.748 -10.3158 1114.15
lradius 108.506
lwrist -10.0468
lhand -14.5944 11.4799
lfingers 7.12502
lthumb 11.5559 41.1414
rfemur -10.2411 2.42168 20.9736
rtibia 12.3236
rfoot -18.8859 -30.5471
rtoes -5.9623
lfemur -21.8473 -19.4447 -10.8377
ltibia 15.0674
lfoot -8.04099 2.20588
ltoes -20.6625
3091
root -0.502003 17.8014 0.372138 -883.353 66.3732 -897.247
lowerback -4.01449 2.25454 0.168595
upperback -7.52647 3.40623 0.650987
thorax -5.58743 1.86568 0.533889
lowerneck -4.06731 -4.43725 -5.65806
upperneck 21.9234 -5.84047 5.57734
head 7.73445 -2.43976 2.36876
rclavicle -4.05893e-014 -1.21259e-014
rhumerus 41.8947 4.17732 -736.16
rradius 118.937
rwrist -32.3321
rhand 5.08737 24.7748
rfingers 7.12502
rthumb 30.4533 -2.72942
lclavicle -4.05893e-014 -1.21259e-014
lhumerus 343.55 -9.86401 1113.81
lradius 108.212
lwrist -10.0275
lhand -14.5825 11.4672
lfingers 7.12502
lthumb 11.5674 41.128
rfemur -10.1781 2.40354 21.0155
rtibia 12.1259
rfoot -19.0883 -30.9632
rtoes -5.78443
lfemur -22.1826 -19.6773 -10.7344
ltibia 15.1632
lfoot -7.99775 1.84821
ltoes -20.663
3092
root -0.501585 17.8001 0.364536 -882.945 65.6986 -896.98
lowerback -3.92159 2.27966 0.130639
upperback -7.48724 3.44393 0.747465
thorax -5.60733 1.88921 0.650909
lowerneck -4.2931 -4.58057 -5.93748
upperneck 22.0192 -6.01962 5.67476
head 7.83116 -2.53438 2.42869
rclavicle 1.29955e-014 -4.77083e-015
rhumerus 42.2645 4.07051 -735.818
rradius 118.796
rwrist -32.0635
rhand 4.62955 25.1519
rfingers 7.12502
rthumb 30.0166 -2.4324
lclavicle 1.29955e-014 -4.77083e-015
lhumerus 343.376 -9.41424 1113.49
lradius 108.047
lwrist -9.89819
lhand -14.9358 11.8129
lfingers 7.12502
lthumb 11.2266 41.4925
rfemur -10.2087 2.3378 21.265
rtibia 11.9681
rfoot -19.2389 -31.422
rtoes -5.5835
lfemur -22.5873 -19.8271 -10.4231
ltibia 15.2512
lfoot -7.98433 1.45052
ltoes -20.5962
